<svg width="238" height="89" viewBox="0 0 238 89" fill="none" xmlns="http://www.w3.org/2000/svg">
<path d="M36.1991 13.1433L54.5941 15.3696L73.0895 17.1946L78.4893 32.7075L84.3243 48.062L71.3291 61.3486L58.6687 74.8782L40.2737 72.6519L21.7783 70.8269L16.3785 55.314L10.5435 39.9595L23.5387 26.6729L36.1991 13.1433Z" fill="url(#paint0_linear)"/>
<path d="M122.735 28.4757C125.075 28.4757 126.928 28.8579 128.294 29.6222C129.684 30.3866 130.68 31.6837 131.282 33.5135C131.884 35.3202 132.185 37.787 132.185 40.9139C132.185 44.0408 131.884 46.5076 131.282 48.3142C130.68 50.1209 129.684 51.418 128.294 52.2055C126.928 52.9699 125.075 53.3521 122.735 53.3521C120.419 53.3521 118.566 52.9699 117.176 52.2055C115.787 51.418 114.779 50.1209 114.154 48.3142C113.551 46.5076 113.25 44.0408 113.25 40.9139C113.25 37.787 113.551 35.3202 114.154 33.5135C114.779 31.6837 115.787 30.3866 117.176 29.6222C118.566 28.8579 120.419 28.4757 122.735 28.4757ZM122.735 31.2204C121.16 31.2204 119.909 31.5215 118.983 32.1238C118.08 32.726 117.431 33.7335 117.037 35.1464C116.667 36.5362 116.481 38.4587 116.481 40.9139C116.481 43.3459 116.667 45.2684 117.037 46.6813C117.431 48.0942 118.08 49.1018 118.983 49.704C119.909 50.3062 121.16 50.6073 122.735 50.6073C124.31 50.6073 125.549 50.3062 126.453 49.704C127.379 49.1018 128.028 48.0942 128.398 46.6813C128.792 45.2684 128.989 43.3459 128.989 40.9139C128.989 38.4587 128.792 36.5362 128.398 35.1464C128.028 33.7335 127.379 32.726 126.453 32.1238C125.549 31.5215 124.31 31.2204 122.735 31.2204ZM146.606 28.9274C147.232 28.9274 147.614 29.2053 147.753 29.7612L155.466 52.9004H152.304L149.942 45.3958H140.074L137.712 52.9004H134.55L142.263 29.7612C142.402 29.2053 142.784 28.9274 143.41 28.9274H146.606ZM143.931 33.2356L140.908 42.7553H149.108L146.085 33.2356C145.992 32.9113 145.888 32.587 145.772 32.2627C145.68 31.9153 145.587 31.591 145.494 31.2899H144.522C144.429 31.591 144.336 31.9153 144.244 32.2627C144.151 32.587 144.047 32.9113 143.931 33.2356ZM164.258 28.6494C166.204 28.6494 167.744 28.8347 168.879 29.2053C170.037 29.5527 170.871 30.1781 171.381 31.0815C171.89 31.9848 172.145 33.2587 172.145 34.9032C172.145 36.6173 171.832 37.9259 171.207 38.8293C170.582 39.7326 169.551 40.2537 168.115 40.3927V40.5317C169.898 40.6938 171.126 41.3192 171.798 42.4078C172.493 43.4965 172.84 45.002 172.84 46.9245C172.84 48.569 172.585 49.843 172.076 50.7463C171.566 51.6496 170.755 52.2866 169.644 52.6572C168.555 53.0046 167.107 53.1783 165.301 53.1783C163.679 53.1783 162.197 53.1204 160.853 53.0046C159.533 52.8888 158.282 52.6919 157.101 52.414L157.344 50.1904C158.248 50.283 159.336 50.3873 160.61 50.5031C161.907 50.5957 163.309 50.6421 164.814 50.6421C166.042 50.6421 167.003 50.5378 167.698 50.3294C168.416 50.0977 168.926 49.6808 169.227 49.0786C169.551 48.4532 169.713 47.5615 169.713 46.4034C169.713 45.1757 169.551 44.2261 169.227 43.5544C168.902 42.8595 168.358 42.3731 167.594 42.0952C166.853 41.8172 165.845 41.6782 164.571 41.6782H160.541V39.2809H164.571C166.262 39.2809 167.432 39.0146 168.08 38.4818C168.752 37.9259 169.088 36.8489 169.088 35.2507C169.088 34.1389 168.926 33.2935 168.601 32.7144C168.3 32.1122 167.779 31.7068 167.038 31.4984C166.32 31.2668 165.335 31.1509 164.085 31.1509C162.764 31.1509 161.583 31.1973 160.541 31.2899C159.522 31.3826 158.641 31.4636 157.9 31.5331L157.657 29.2053C158.723 29.02 159.765 28.881 160.784 28.7884C161.803 28.6957 162.961 28.6494 164.258 28.6494ZM195.903 28.9274V52.9004H192.95V35.4244C192.95 34.9611 192.961 34.4979 192.984 34.0347C193.008 33.5714 193.054 33.1197 193.123 32.6797H192.95C192.788 33.1197 192.591 33.5714 192.359 34.0347C192.127 34.4747 191.907 34.8917 191.699 35.2854L181.067 52.9004H177.941V28.9274H180.894V46.2296C180.894 46.716 180.871 47.2025 180.824 47.6889C180.801 48.1521 180.766 48.6154 180.72 49.0786H180.859C181.044 48.6385 181.253 48.1984 181.484 47.7583C181.739 47.3183 181.982 46.8898 182.214 46.4728L192.741 28.9274H195.903ZM210.475 28.5104C211.494 28.5104 212.362 28.5336 213.08 28.5799C213.822 28.6262 214.493 28.7073 215.095 28.8231C215.721 28.9158 216.358 29.0432 217.006 29.2053L216.694 31.5331C215.999 31.4636 215.35 31.4057 214.748 31.3594C214.169 31.3131 213.544 31.2783 212.872 31.2552C212.2 31.232 211.401 31.2204 210.475 31.2204C208.923 31.2204 207.695 31.5215 206.792 32.1238C205.888 32.726 205.24 33.7335 204.846 35.1464C204.476 36.5594 204.29 38.4818 204.29 40.9139C204.29 43.3459 204.476 45.2684 204.846 46.6813C205.24 48.0942 205.888 49.1018 206.792 49.704C207.695 50.3062 208.923 50.6073 210.475 50.6073C211.957 50.6073 213.196 50.5842 214.192 50.5378C215.211 50.4683 216.207 50.3641 217.18 50.2251L217.493 52.5182C216.497 52.7962 215.466 52.993 214.401 53.1089C213.358 53.2478 212.05 53.3173 210.475 53.3173C208.182 53.3173 206.34 52.9236 204.95 52.136C203.584 51.3254 202.588 50.0167 201.962 48.21C201.36 46.4034 201.059 43.9713 201.059 40.9139C201.059 37.8564 201.36 35.4244 201.962 33.6177C202.588 31.8111 203.584 30.514 204.95 29.7265C206.34 28.9158 208.182 28.5104 210.475 28.5104Z" fill="white"/>
<path d="M112.182 61.6262L113.404 65.0658C113.436 65.1605 113.464 65.2553 113.49 65.35C113.521 65.4385 113.55 65.5301 113.575 65.6248H113.708C113.739 65.5301 113.771 65.4353 113.802 65.3405C113.834 65.2395 113.866 65.1479 113.897 65.0658L115.11 61.6262H115.972L114.134 66.4966C114.058 66.6924 113.951 66.923 113.812 67.1883C113.673 67.4536 113.49 67.6715 113.262 67.8421C113.029 68.019 112.766 68.1232 112.476 68.1548C112.192 68.1927 111.882 68.1895 111.547 68.1453L111.623 67.5862C111.825 67.5926 112.021 67.5831 112.211 67.5578C112.406 67.5389 112.58 67.4789 112.732 67.3778C112.864 67.283 112.984 67.1504 113.092 66.9798C113.205 66.8156 113.3 66.6355 113.376 66.4397L113.461 66.2407H113.281C113.136 66.2407 113.038 66.1712 112.988 66.0323L111.32 61.6262H112.182ZM120.873 61.6262V66.2407H120.077V62.28H117.708V66.2407H116.922V61.6262H120.873ZM123.036 61.6262L123.111 62.3558C123.364 62.0968 123.661 61.8915 124.002 61.7399C124.349 61.5882 124.687 61.5124 125.016 61.5124C125.584 61.5124 125.992 61.7209 126.238 62.1378C126.485 62.5484 126.608 63.1549 126.608 63.9571C126.608 64.5509 126.545 65.0247 126.418 65.3785C126.292 65.7259 126.099 65.9754 125.84 66.127C125.581 66.2786 125.256 66.3544 124.864 66.3544C124.561 66.3544 124.261 66.3165 123.964 66.2407C123.674 66.1586 123.402 66.0386 123.149 65.8807C123.162 66.0386 123.171 66.1902 123.178 66.3355C123.184 66.4871 123.184 66.645 123.178 66.8093V68.1453H122.382V61.6262H123.036ZM124.76 62.2136C124.507 62.2136 124.258 62.2736 124.012 62.3937C123.771 62.5074 123.494 62.6842 123.178 62.9243V65.3785C123.468 65.4543 123.724 65.5206 123.945 65.5774C124.173 65.628 124.409 65.6532 124.656 65.6532C124.927 65.6532 125.142 65.6059 125.3 65.5111C125.464 65.4164 125.584 65.2458 125.66 64.9994C125.736 64.7531 125.774 64.4056 125.774 63.9571C125.774 63.3002 125.695 62.8453 125.537 62.5927C125.385 62.34 125.126 62.2136 124.76 62.2136ZM130.085 61.5124C130.597 61.5124 130.986 61.6198 131.251 61.8346C131.523 62.0431 131.658 62.4284 131.658 62.9906V66.2407H131.023L130.929 65.4827C130.809 65.6027 130.654 65.729 130.464 65.8617C130.275 65.988 130.057 66.0986 129.811 66.1933C129.571 66.2818 129.308 66.326 129.024 66.326C128.614 66.326 128.282 66.2155 128.029 65.9944C127.777 65.7733 127.65 65.4543 127.65 65.0373V64.5351C127.65 64.1751 127.761 63.8971 127.982 63.7013C128.209 63.4991 128.525 63.3981 128.929 63.3981H130.853V62.9906C130.847 62.7064 130.78 62.5042 130.654 62.3842C130.528 62.2579 130.281 62.1947 129.915 62.1947C129.668 62.1947 129.362 62.2073 128.996 62.2326C128.636 62.2579 128.279 62.2863 127.925 62.3179L127.849 61.7209C128.171 61.6704 128.538 61.623 128.948 61.5788C129.359 61.5346 129.738 61.5124 130.085 61.5124ZM129.185 65.6343C129.413 65.6406 129.678 65.5869 129.981 65.4732C130.291 65.3532 130.581 65.1731 130.853 64.9331V64.0045L129.072 64.014C128.85 64.0203 128.692 64.0803 128.598 64.194C128.509 64.3014 128.465 64.453 128.465 64.6488V64.9426C128.465 65.1826 128.522 65.3595 128.636 65.4732C128.756 65.5806 128.939 65.6343 129.185 65.6343ZM135.001 61.5788C135.481 61.5788 135.86 61.6135 136.138 61.683C136.422 61.7525 136.628 61.8757 136.754 62.0525C136.88 62.2294 136.943 62.4821 136.943 62.8106C136.943 63.1391 136.864 63.3886 136.706 63.5592C136.555 63.7234 136.302 63.8213 135.948 63.8529V63.8813C136.378 63.9129 136.678 64.0329 136.849 64.2414C137.019 64.4435 137.104 64.731 137.104 65.1037C137.104 65.4195 137.041 65.6659 136.915 65.8428C136.795 66.0133 136.599 66.1333 136.327 66.2028C136.062 66.2723 135.705 66.3071 135.257 66.3071C134.935 66.3071 134.653 66.3039 134.413 66.2976C134.173 66.2976 133.952 66.2913 133.75 66.2786C133.554 66.2723 133.346 66.2628 133.125 66.2502V61.6356C133.321 61.6167 133.507 61.604 133.684 61.5977C133.861 61.5914 134.053 61.5882 134.262 61.5882C134.47 61.5819 134.717 61.5788 135.001 61.5788ZM134.972 62.2136C134.758 62.2136 134.559 62.2136 134.376 62.2136C134.192 62.2073 134.028 62.2073 133.883 62.2136V63.5781H135.096C135.494 63.5781 135.772 63.5307 135.929 63.436C136.094 63.3412 136.176 63.1549 136.176 62.8769C136.176 62.6116 136.087 62.4347 135.911 62.3463C135.734 62.2579 135.421 62.2136 134.972 62.2136ZM135.096 64.1561H133.883V65.6627C134.053 65.669 134.243 65.6722 134.451 65.6722C134.666 65.6722 134.897 65.6722 135.143 65.6722C135.573 65.6722 135.873 65.6248 136.043 65.5301C136.214 65.429 136.299 65.23 136.299 64.9331C136.299 64.6362 136.211 64.4341 136.034 64.3267C135.857 64.213 135.544 64.1561 135.096 64.1561ZM142.19 61.6262V66.2407H141.385V62.261H140.38C140.184 62.261 140.042 62.3052 139.954 62.3937C139.872 62.4758 139.815 62.6242 139.783 62.839C139.733 63.2559 139.676 63.6855 139.613 64.1277C139.55 64.5636 139.458 64.9426 139.338 65.2647C139.104 65.9407 138.621 66.2818 137.888 66.2881L137.803 65.6722C138.062 65.609 138.245 65.5269 138.352 65.4258C138.466 65.3248 138.555 65.1921 138.618 65.0279C138.7 64.8257 138.766 64.5857 138.817 64.3077C138.867 64.0298 138.908 63.7487 138.94 63.4644C138.978 63.1738 139.006 62.9211 139.025 62.7064C139.069 62.3526 139.183 62.0841 139.366 61.9009C139.556 61.7177 139.843 61.6262 140.229 61.6262H142.19ZM145.303 61.5788C145.65 61.5788 145.938 61.5819 146.165 61.5882C146.393 61.5882 146.595 61.5946 146.772 61.6072C146.955 61.6135 147.144 61.6262 147.34 61.6451V66.2407H146.554V64.5351C146.396 64.5351 146.213 64.5351 146.004 64.5351C145.802 64.5351 145.571 64.5351 145.312 64.5351C144.864 64.5351 144.595 64.6931 144.507 65.0089L144.156 66.2407H143.323L143.74 64.8573C143.803 64.6552 143.923 64.513 144.1 64.4309C144.283 64.3425 144.463 64.2888 144.64 64.2698V64.2319C144.254 64.1814 143.983 64.0456 143.825 63.8245C143.667 63.6034 143.588 63.3096 143.588 62.9432C143.588 62.6527 143.638 62.4063 143.74 62.2042C143.841 62.002 144.014 61.8472 144.261 61.7399C144.513 61.6325 144.861 61.5788 145.303 61.5788ZM145.35 63.9287H146.554V62.2326C146.39 62.2263 146.203 62.2231 145.995 62.2231C145.786 62.2231 145.562 62.2231 145.322 62.2231C144.937 62.2231 144.681 62.2894 144.554 62.4221C144.434 62.5484 144.374 62.7601 144.374 63.057C144.374 63.3665 144.438 63.5907 144.564 63.7297C144.697 63.8624 144.959 63.9287 145.35 63.9287ZM149.642 61.6262V63.5497H150.827C150.852 63.0254 150.937 62.6179 151.083 62.3273C151.228 62.0304 151.446 61.822 151.737 61.702C152.033 61.5756 152.422 61.5124 152.902 61.5124C153.439 61.5124 153.865 61.5851 154.181 61.7304C154.503 61.8694 154.734 62.1157 154.873 62.4695C155.018 62.8169 155.091 63.3033 155.091 63.9287C155.091 64.5414 155.018 65.0215 154.873 65.369C154.734 65.7164 154.503 65.9628 154.181 66.1081C153.865 66.2534 153.439 66.326 152.902 66.326C152.409 66.326 152.015 66.2628 151.718 66.1365C151.421 66.0038 151.2 65.7827 151.054 65.4732C150.915 65.1574 150.836 64.7246 150.817 64.1751H149.642V66.2407H148.847V61.6262H149.642ZM152.893 62.1947C152.564 62.1947 152.305 62.2484 152.116 62.3558C151.926 62.4568 151.79 62.6337 151.708 62.8864C151.632 63.1328 151.594 63.477 151.594 63.9192C151.594 64.3551 151.632 64.6994 151.708 64.9521C151.79 65.2047 151.926 65.3848 152.116 65.4922C152.305 65.5932 152.564 65.6438 152.893 65.6438C153.234 65.6438 153.502 65.5932 153.698 65.4922C153.9 65.3848 154.042 65.2047 154.124 64.9521C154.213 64.6994 154.257 64.3551 154.257 63.9192C154.257 63.477 154.213 63.1328 154.124 62.8864C154.042 62.6337 153.9 62.4568 153.698 62.3558C153.502 62.2484 153.234 62.1947 152.893 62.1947ZM157.156 61.6262V65.5964H159.07V61.6262H159.799V65.5964H161.732V61.6262H162.509V65.5964H163.144V67.6052H162.604L162.519 66.2407H156.379V61.6262H157.156ZM166.433 61.5124C166.945 61.5124 167.333 61.6198 167.598 61.8346C167.87 62.0431 168.006 62.4284 168.006 62.9906V66.2407H167.371L167.276 65.4827C167.156 65.6027 167.001 65.729 166.812 65.8617C166.622 65.988 166.404 66.0986 166.158 66.1933C165.918 66.2818 165.656 66.326 165.372 66.326C164.961 66.326 164.629 66.2155 164.377 65.9944C164.124 65.7733 163.998 65.4543 163.998 65.0373V64.5351C163.998 64.1751 164.108 63.8971 164.329 63.7013C164.557 63.4991 164.873 63.3981 165.277 63.3981H167.2V62.9906C167.194 62.7064 167.128 62.5042 167.001 62.3842C166.875 62.2579 166.629 62.1947 166.262 62.1947C166.016 62.1947 165.71 62.2073 165.343 62.2326C164.983 62.2579 164.626 62.2863 164.272 62.3179L164.197 61.7209C164.519 61.6704 164.885 61.623 165.296 61.5788C165.706 61.5346 166.085 61.5124 166.433 61.5124ZM165.533 65.6343C165.76 65.6406 166.025 65.5869 166.329 65.4732C166.638 65.3532 166.929 65.1731 167.2 64.9331V64.0045L165.419 64.014C165.198 64.0203 165.04 64.0803 164.945 64.194C164.857 64.3014 164.813 64.453 164.813 64.6488V64.9426C164.813 65.1826 164.869 65.3595 164.983 65.4732C165.103 65.5806 165.286 65.6343 165.533 65.6343ZM171.083 61.5788C171.43 61.5788 171.718 61.5819 171.945 61.5882C172.173 61.5882 172.375 61.5946 172.552 61.6072C172.735 61.6135 172.924 61.6262 173.12 61.6451V66.2407H172.334V64.5351C172.176 64.5351 171.993 64.5351 171.784 64.5351C171.582 64.5351 171.352 64.5351 171.093 64.5351C170.644 64.5351 170.376 64.6931 170.287 65.0089L169.936 66.2407H169.103L169.52 64.8573C169.583 64.6552 169.703 64.513 169.88 64.4309C170.063 64.3425 170.243 64.2888 170.42 64.2698V64.2319C170.034 64.1814 169.763 64.0456 169.605 63.8245C169.447 63.6034 169.368 63.3096 169.368 62.9432C169.368 62.6527 169.419 62.4063 169.52 62.2042C169.621 62.002 169.794 61.8472 170.041 61.7399C170.293 61.6325 170.641 61.5788 171.083 61.5788ZM171.13 63.9287H172.334V62.2326C172.17 62.2263 171.983 62.2231 171.775 62.2231C171.566 62.2231 171.342 62.2231 171.102 62.2231C170.717 62.2231 170.461 62.2894 170.334 62.4221C170.214 62.5484 170.154 62.7601 170.154 63.057C170.154 63.3665 170.218 63.5907 170.344 63.7297C170.477 63.8624 170.739 63.9287 171.13 63.9287ZM177.532 61.6262V63.0001C177.532 63.1833 177.517 63.3602 177.485 63.5307H178.129C178.432 63.5307 178.676 63.4549 178.859 63.3033C179.042 63.1517 179.2 62.9338 179.333 62.6495C179.472 62.3652 179.617 62.0241 179.769 61.6262H180.602C180.432 62.081 180.274 62.4663 180.129 62.7822C179.983 63.098 179.813 63.3412 179.617 63.5118C179.427 63.6823 179.168 63.7866 178.84 63.8245V63.8529C179.187 63.8845 179.462 63.9887 179.664 64.1656C179.866 64.3361 180.046 64.592 180.204 64.9331C180.362 65.2679 180.539 65.7038 180.735 66.2407H179.892C179.702 65.7417 179.535 65.3405 179.39 65.0373C179.244 64.7278 179.077 64.5035 178.887 64.3646C178.704 64.2193 178.451 64.1498 178.129 64.1561H177.494C177.52 64.314 177.532 64.4625 177.532 64.6015V66.2407H176.727V61.6262H177.532ZM183.731 61.5124C184.262 61.5124 184.685 61.5914 185.001 61.7493C185.317 61.9073 185.544 62.1663 185.683 62.5263C185.829 62.8801 185.901 63.3507 185.901 63.9382C185.901 64.5257 185.829 64.9994 185.683 65.3595C185.544 65.7133 185.317 65.9691 185.001 66.127C184.685 66.2849 184.262 66.3639 183.731 66.3639C183.201 66.3639 182.774 66.2849 182.452 66.127C182.136 65.9691 181.906 65.7133 181.761 65.3595C181.622 64.9994 181.552 64.5257 181.552 63.9382C181.552 63.3507 181.622 62.8801 181.761 62.5263C181.906 62.1663 182.136 61.9073 182.452 61.7493C182.774 61.5914 183.201 61.5124 183.731 61.5124ZM183.731 62.1947C183.397 62.1947 183.131 62.2484 182.935 62.3558C182.74 62.4568 182.601 62.6337 182.519 62.8864C182.436 63.1391 182.395 63.4897 182.395 63.9382C182.395 64.3867 182.436 64.7373 182.519 64.99C182.601 65.2426 182.74 65.4227 182.935 65.5301C183.131 65.6311 183.397 65.6817 183.731 65.6817C184.066 65.6817 184.328 65.6311 184.518 65.5301C184.714 65.4227 184.853 65.2426 184.935 64.99C185.017 64.7373 185.058 64.3867 185.058 63.9382C185.058 63.4897 185.017 63.1391 184.935 62.8864C184.853 62.6337 184.714 62.4568 184.518 62.3558C184.328 62.2484 184.066 62.1947 183.731 62.1947ZM192.366 61.6262C192.568 61.6262 192.67 61.7272 192.67 61.9294L192.869 66.2407H192.12L191.94 62.2421H191.779L190.604 65.4732C190.579 65.5553 190.541 65.6217 190.49 65.6722C190.44 65.7164 190.37 65.7385 190.282 65.7385H189.656C189.568 65.7385 189.498 65.7164 189.448 65.6722C189.404 65.6217 189.366 65.5553 189.334 65.4732L188.159 62.2421H187.998L187.828 66.2407H187.088L187.278 61.9294C187.278 61.7272 187.382 61.6262 187.591 61.6262H188.425C188.582 61.6262 188.687 61.7146 188.737 61.8915L189.694 64.5446C189.738 64.6583 189.776 64.7689 189.808 64.8762C189.84 64.9836 189.868 65.0942 189.893 65.2079H190.045C190.076 65.0879 190.108 64.9742 190.14 64.8668C190.171 64.7594 190.206 64.652 190.244 64.5446L191.201 61.8915C191.258 61.7146 191.365 61.6262 191.523 61.6262H192.366ZM198.223 61.6262V66.2407H197.427V62.28H195.058V66.2407H194.271V61.6262H198.223ZM201.91 61.5124C202.422 61.5124 202.811 61.6198 203.076 61.8346C203.348 62.0431 203.483 62.4284 203.483 62.9906V66.2407H202.849L202.754 65.4827C202.634 65.6027 202.479 65.729 202.29 65.8617C202.1 65.988 201.882 66.0986 201.636 66.1933C201.396 66.2818 201.133 66.326 200.849 66.326C200.439 66.326 200.107 66.2155 199.854 65.9944C199.602 65.7733 199.475 65.4543 199.475 65.0373V64.5351C199.475 64.1751 199.586 63.8971 199.807 63.7013C200.034 63.4991 200.35 63.3981 200.754 63.3981H202.678V62.9906C202.672 62.7064 202.605 62.5042 202.479 62.3842C202.353 62.2579 202.106 62.1947 201.74 62.1947C201.494 62.1947 201.187 62.2073 200.821 62.2326C200.461 62.2579 200.104 62.2863 199.75 62.3179L199.674 61.7209C199.996 61.6704 200.363 61.623 200.773 61.5788C201.184 61.5346 201.563 61.5124 201.91 61.5124ZM201.01 65.6343C201.238 65.6406 201.503 65.5869 201.806 65.4732C202.116 65.3532 202.406 65.1731 202.678 64.9331V64.0045L200.897 64.014C200.676 64.0203 200.518 64.0803 200.423 64.194C200.334 64.3014 200.29 64.453 200.29 64.6488V64.9426C200.29 65.1826 200.347 65.3595 200.461 65.4732C200.581 65.5806 200.764 65.6343 201.01 65.6343ZM205.746 61.6262V63.4833H208.172V61.6262H208.967V66.2407H208.172V64.0993H205.746V66.2407H204.95V61.6262H205.746ZM214.52 61.6262V66.2407H213.791V63.1801C213.791 63.0791 213.794 62.9811 213.8 62.8864C213.807 62.7853 213.813 62.6779 213.819 62.5642H213.8C213.762 62.6527 213.712 62.7474 213.649 62.8485C213.592 62.9432 213.535 63.0285 213.478 63.1043L211.128 66.2407H210.465V61.6262H211.194V64.6867C211.194 64.7878 211.191 64.8889 211.185 64.99C211.185 65.0847 211.179 65.1889 211.166 65.3026H211.185C211.286 65.0942 211.397 64.9173 211.517 64.772L213.867 61.6262H214.52ZM217.637 61.5788C217.984 61.5788 218.272 61.5819 218.499 61.5882C218.727 61.5882 218.929 61.5946 219.106 61.6072C219.289 61.6135 219.478 61.6262 219.674 61.6451V66.2407H218.888V64.5351C218.73 64.5351 218.547 64.5351 218.338 64.5351C218.136 64.5351 217.905 64.5351 217.646 64.5351C217.198 64.5351 216.93 64.6931 216.841 65.0089L216.49 66.2407H215.657L216.074 64.8573C216.137 64.6552 216.257 64.513 216.434 64.4309C216.617 64.3425 216.797 64.2888 216.974 64.2698V64.2319C216.588 64.1814 216.317 64.0456 216.159 63.8245C216.001 63.6034 215.922 63.3096 215.922 62.9432C215.922 62.6527 215.972 62.4063 216.074 62.2042C216.175 62.002 216.348 61.8472 216.595 61.7399C216.847 61.6325 217.195 61.5788 217.637 61.5788ZM217.684 63.9287H218.888V62.2326C218.724 62.2263 218.537 62.2231 218.329 62.2231C218.12 62.2231 217.896 62.2231 217.656 62.2231C217.271 62.2231 217.015 62.2894 216.888 62.4221C216.768 62.5484 216.708 62.7601 216.708 63.057C216.708 63.3665 216.772 63.5907 216.898 63.7297C217.031 63.8624 217.293 63.9287 217.684 63.9287Z" fill="#6B6B6B"/>
<path d="M52.6626 48.9083L52.5928 74.0165L58.5939 74.7535L66.7007 66.3308V43.1685L52.6626 48.9083Z" fill="#FDFDFD" stroke="#CFCFCF" stroke-width="0.210567"/>
<path d="M49.0132 30.9556V73.6023L44.7655 73.0924V61.0776L34.6946 56.306V38.8482L49.0132 30.9556Z" fill="#FDFDFD" stroke="#CFCFCF" stroke-width="0.210567"/>
<path d="M27.7459 71.3842V56.6445L41.0116 62.9535V72.6476L27.7459 71.3842Z" fill="#FDFDFD" stroke="#CFCFCF" stroke-width="0.210567"/>
<defs>
<linearGradient id="paint0_linear" x1="25.328" y1="0.931398" x2="14.9597" y2="59.9991" gradientUnits="userSpaceOnUse">
<stop offset="0.189935" stop-color="#1E5BF9"/>
<stop offset="0.58201" stop-color="#33A180"/>
<stop offset="1" stop-color="#3DC500"/>
</linearGradient>
</defs>
</svg>
